<svg xmlns="http://www.w3.org/2000/svg" width="1050" height="800" viewBox="0 0 1050 800">
<rect width="1050" height="800" fill="white"/>
<g font-family="Arial,sans-serif">
<text x="25" y="35" font-size="23" text-anchor="start" fill="#183044">Жилищные условия · 2021 · корреляции Спирмена</text>
<text x="25" y="65" font-size="14" text-anchor="start" fill="#183044">Синтетическая выборка · без весов · попарное исключение пропусков</text>
<text x="25" y="92" font-size="14" text-anchor="start" fill="#183044">Нет данных о возрасте детей и сопоставимого вопроса об отоплении.</text>
<text x="293" y="175" font-size="13" text-anchor="end" fill="#183044">1. Человек в семье</text>
<text x="335" y="125" font-size="15" text-anchor="middle" fill="#183044">1</text>
<rect x="305" y="140" width="59" height="59" fill="#286ca5"/>
<text x="335" y="175" font-size="14" text-anchor="middle" fill="white">1.00</text>
<rect x="365" y="140" width="59" height="59" fill="#c7d7e4"/>
<text x="395" y="175" font-size="14" text-anchor="middle" fill="#183044">0.24</text>
<rect x="425" y="140" width="59" height="59" fill="#d16d68"/>
<text x="455" y="175" font-size="14" text-anchor="middle" fill="white">-0.77</text>
<rect x="485" y="140" width="59" height="59" fill="#588cb8"/>
<text x="515" y="175" font-size="14" text-anchor="middle" fill="white">0.77</text>
<rect x="545" y="140" width="59" height="59" fill="#dce5ed"/>
<text x="575" y="175" font-size="14" text-anchor="middle" fill="#183044">0.13</text>
<rect x="605" y="140" width="59" height="59" fill="#e2e9ef"/>
<text x="635" y="175" font-size="14" text-anchor="middle" fill="#183044">0.10</text>
<rect x="665" y="140" width="59" height="59" fill="#e5ebf0"/>
<text x="695" y="175" font-size="14" text-anchor="middle" fill="#183044">0.09</text>
<rect x="725" y="140" width="59" height="59" fill="#f6f2f2"/>
<text x="755" y="175" font-size="14" text-anchor="middle" fill="#183044">-0.03</text>
<rect x="785" y="140" width="59" height="59" fill="#f2f4f5"/>
<text x="815" y="175" font-size="14" text-anchor="middle" fill="#183044">0.03</text>
<text x="293" y="235" font-size="13" text-anchor="end" fill="#183044">2. Общая площадь, м²</text>
<text x="395" y="125" font-size="15" text-anchor="middle" fill="#183044">2</text>
<rect x="305" y="200" width="59" height="59" fill="#c7d7e4"/>
<text x="335" y="235" font-size="14" text-anchor="middle" fill="#183044">0.24</text>
<rect x="365" y="200" width="59" height="59" fill="#286ca5"/>
<text x="395" y="235" font-size="14" text-anchor="middle" fill="white">1.00</text>
<rect x="425" y="200" width="59" height="59" fill="#a6c1d7"/>
<text x="455" y="235" font-size="14" text-anchor="middle" fill="#183044">0.39</text>
<rect x="485" y="200" width="59" height="59" fill="#eac6c5"/>
<text x="515" y="235" font-size="14" text-anchor="middle" fill="#183044">-0.27</text>
<rect x="545" y="200" width="59" height="59" fill="#e4eaf0"/>
<text x="575" y="235" font-size="14" text-anchor="middle" fill="#183044">0.09</text>
<rect x="605" y="200" width="59" height="59" fill="#e7ecf1"/>
<text x="635" y="235" font-size="14" text-anchor="middle" fill="#183044">0.08</text>
<rect x="665" y="200" width="59" height="59" fill="#e6ecf1"/>
<text x="695" y="235" font-size="14" text-anchor="middle" fill="#183044">0.08</text>
<rect x="725" y="200" width="59" height="59" fill="#f6f2f2"/>
<text x="755" y="235" font-size="14" text-anchor="middle" fill="#183044">-0.03</text>
<rect x="785" y="200" width="59" height="59" fill="#dee6ed"/>
<text x="815" y="235" font-size="14" text-anchor="middle" fill="#183044">0.12</text>
<text x="293" y="295" font-size="13" text-anchor="end" fill="#183044">3. Площадь на человека</text>
<text x="455" y="125" font-size="15" text-anchor="middle" fill="#183044">3</text>
<rect x="305" y="260" width="59" height="59" fill="#d16d68"/>
<text x="335" y="295" font-size="14" text-anchor="middle" fill="white">-0.77</text>
<rect x="365" y="260" width="59" height="59" fill="#a6c1d7"/>
<text x="395" y="295" font-size="14" text-anchor="middle" fill="#183044">0.39</text>
<rect x="425" y="260" width="59" height="59" fill="#286ca5"/>
<text x="455" y="295" font-size="14" text-anchor="middle" fill="white">1.00</text>
<rect x="485" y="260" width="59" height="59" fill="#ca544e"/>
<text x="515" y="295" font-size="14" text-anchor="middle" fill="white">-0.91</text>
<rect x="545" y="260" width="59" height="59" fill="#f5eded"/>
<text x="575" y="295" font-size="14" text-anchor="middle" fill="#183044">-0.06</text>
<rect x="605" y="260" width="59" height="59" fill="#f5f0f0"/>
<text x="635" y="295" font-size="14" text-anchor="middle" fill="#183044">-0.04</text>
<rect x="665" y="260" width="59" height="59" fill="#f6f3f3"/>
<text x="695" y="295" font-size="14" text-anchor="middle" fill="#183044">-0.03</text>
<rect x="725" y="260" width="59" height="59" fill="#f6f7f7"/>
<text x="755" y="295" font-size="14" text-anchor="middle" fill="#183044">0.01</text>
<rect x="785" y="260" width="59" height="59" fill="#ecf0f3"/>
<text x="815" y="295" font-size="14" text-anchor="middle" fill="#183044">0.06</text>
<text x="293" y="355" font-size="13" text-anchor="end" fill="#183044">4. Человек на комнату</text>
<text x="515" y="125" font-size="15" text-anchor="middle" fill="#183044">4</text>
<rect x="305" y="320" width="59" height="59" fill="#588cb8"/>
<text x="335" y="355" font-size="14" text-anchor="middle" fill="white">0.77</text>
<rect x="365" y="320" width="59" height="59" fill="#eac6c5"/>
<text x="395" y="355" font-size="14" text-anchor="middle" fill="#183044">-0.27</text>
<rect x="425" y="320" width="59" height="59" fill="#ca544e"/>
<text x="455" y="355" font-size="14" text-anchor="middle" fill="white">-0.91</text>
<rect x="485" y="320" width="59" height="59" fill="#286ca5"/>
<text x="515" y="355" font-size="14" text-anchor="middle" fill="white">1.00</text>
<rect x="545" y="320" width="59" height="59" fill="#e8edf1"/>
<text x="575" y="355" font-size="14" text-anchor="middle" fill="#183044">0.07</text>
<rect x="605" y="320" width="59" height="59" fill="#edf0f3"/>
<text x="635" y="355" font-size="14" text-anchor="middle" fill="#183044">0.05</text>
<rect x="665" y="320" width="59" height="59" fill="#f0f2f5"/>
<text x="695" y="355" font-size="14" text-anchor="middle" fill="#183044">0.04</text>
<rect x="725" y="320" width="59" height="59" fill="#f6f4f3"/>
<text x="755" y="355" font-size="14" text-anchor="middle" fill="#183044">-0.02</text>
<rect x="785" y="320" width="59" height="59" fill="#f3e6e6"/>
<text x="815" y="355" font-size="14" text-anchor="middle" fill="#183044">-0.09</text>
<text x="293" y="415" font-size="13" text-anchor="end" fill="#183044">5. Удовлетворённость жизнью</text>
<text x="575" y="125" font-size="15" text-anchor="middle" fill="#183044">5</text>
<rect x="305" y="380" width="59" height="59" fill="#dce5ed"/>
<text x="335" y="415" font-size="14" text-anchor="middle" fill="#183044">0.13</text>
<rect x="365" y="380" width="59" height="59" fill="#e4eaf0"/>
<text x="395" y="415" font-size="14" text-anchor="middle" fill="#183044">0.09</text>
<rect x="425" y="380" width="59" height="59" fill="#f5eded"/>
<text x="455" y="415" font-size="14" text-anchor="middle" fill="#183044">-0.06</text>
<rect x="485" y="380" width="59" height="59" fill="#e8edf1"/>
<text x="515" y="415" font-size="14" text-anchor="middle" fill="#183044">0.07</text>
<rect x="545" y="380" width="59" height="59" fill="#286ca5"/>
<text x="575" y="415" font-size="14" text-anchor="middle" fill="white">1.00</text>
<rect x="605" y="380" width="59" height="59" fill="#4c84b3"/>
<text x="635" y="415" font-size="14" text-anchor="middle" fill="white">0.82</text>
<rect x="665" y="380" width="59" height="59" fill="#749fc3"/>
<text x="695" y="415" font-size="14" text-anchor="middle" fill="white">0.63</text>
<rect x="725" y="380" width="59" height="59" fill="#f0dedd"/>
<text x="755" y="415" font-size="14" text-anchor="middle" fill="#183044">-0.14</text>
<rect x="785" y="380" width="59" height="59" fill="#f2f4f5"/>
<text x="815" y="415" font-size="14" text-anchor="middle" fill="#183044">0.03</text>
<text x="293" y="475" font-size="13" text-anchor="end" fill="#183044">6. Удовлетворённость условиями</text>
<text x="635" y="125" font-size="15" text-anchor="middle" fill="#183044">6</text>
<rect x="305" y="440" width="59" height="59" fill="#e2e9ef"/>
<text x="335" y="475" font-size="14" text-anchor="middle" fill="#183044">0.10</text>
<rect x="365" y="440" width="59" height="59" fill="#e7ecf1"/>
<text x="395" y="475" font-size="14" text-anchor="middle" fill="#183044">0.08</text>
<rect x="425" y="440" width="59" height="59" fill="#f5f0f0"/>
<text x="455" y="475" font-size="14" text-anchor="middle" fill="#183044">-0.04</text>
<rect x="485" y="440" width="59" height="59" fill="#edf0f3"/>
<text x="515" y="475" font-size="14" text-anchor="middle" fill="#183044">0.05</text>
<rect x="545" y="440" width="59" height="59" fill="#4c84b3"/>
<text x="575" y="475" font-size="14" text-anchor="middle" fill="white">0.82</text>
<rect x="605" y="440" width="59" height="59" fill="#286ca5"/>
<text x="635" y="475" font-size="14" text-anchor="middle" fill="white">1.00</text>
<rect x="665" y="440" width="59" height="59" fill="#6393bc"/>
<text x="695" y="475" font-size="14" text-anchor="middle" fill="white">0.72</text>
<rect x="725" y="440" width="59" height="59" fill="#f1e2e1"/>
<text x="755" y="475" font-size="14" text-anchor="middle" fill="#183044">-0.12</text>
<rect x="785" y="440" width="59" height="59" fill="#f3f5f6"/>
<text x="815" y="475" font-size="14" text-anchor="middle" fill="#183044">0.02</text>
<text x="293" y="535" font-size="13" text-anchor="end" fill="#183044">7. Удовлетворённость финансами</text>
<text x="695" y="125" font-size="15" text-anchor="middle" fill="#183044">7</text>
<rect x="305" y="500" width="59" height="59" fill="#e5ebf0"/>
<text x="335" y="535" font-size="14" text-anchor="middle" fill="#183044">0.09</text>
<rect x="365" y="500" width="59" height="59" fill="#e6ecf1"/>
<text x="395" y="535" font-size="14" text-anchor="middle" fill="#183044">0.08</text>
<rect x="425" y="500" width="59" height="59" fill="#f6f3f3"/>
<text x="455" y="535" font-size="14" text-anchor="middle" fill="#183044">-0.03</text>
<rect x="485" y="500" width="59" height="59" fill="#f0f2f5"/>
<text x="515" y="535" font-size="14" text-anchor="middle" fill="#183044">0.04</text>
<rect x="545" y="500" width="59" height="59" fill="#749fc3"/>
<text x="575" y="535" font-size="14" text-anchor="middle" fill="white">0.63</text>
<rect x="605" y="500" width="59" height="59" fill="#6393bc"/>
<text x="635" y="535" font-size="14" text-anchor="middle" fill="white">0.72</text>
<rect x="665" y="500" width="59" height="59" fill="#286ca5"/>
<text x="695" y="535" font-size="14" text-anchor="middle" fill="white">1.00</text>
<rect x="725" y="500" width="59" height="59" fill="#f2e5e4"/>
<text x="755" y="535" font-size="14" text-anchor="middle" fill="#183044">-0.10</text>
<rect x="785" y="500" width="59" height="59" fill="#f5f6f6"/>
<text x="815" y="535" font-size="14" text-anchor="middle" fill="#183044">0.01</text>
<text x="293" y="595" font-size="13" text-anchor="end" fill="#183044">8. Трудности оплаты ЖКУ</text>
<text x="755" y="125" font-size="15" text-anchor="middle" fill="#183044">8</text>
<rect x="305" y="560" width="59" height="59" fill="#f6f2f2"/>
<text x="335" y="595" font-size="14" text-anchor="middle" fill="#183044">-0.03</text>
<rect x="365" y="560" width="59" height="59" fill="#f6f2f2"/>
<text x="395" y="595" font-size="14" text-anchor="middle" fill="#183044">-0.03</text>
<rect x="425" y="560" width="59" height="59" fill="#f6f7f7"/>
<text x="455" y="595" font-size="14" text-anchor="middle" fill="#183044">0.01</text>
<rect x="485" y="560" width="59" height="59" fill="#f6f4f3"/>
<text x="515" y="595" font-size="14" text-anchor="middle" fill="#183044">-0.02</text>
<rect x="545" y="560" width="59" height="59" fill="#f0dedd"/>
<text x="575" y="595" font-size="14" text-anchor="middle" fill="#183044">-0.14</text>
<rect x="605" y="560" width="59" height="59" fill="#f1e2e1"/>
<text x="635" y="595" font-size="14" text-anchor="middle" fill="#183044">-0.12</text>
<rect x="665" y="560" width="59" height="59" fill="#f2e5e4"/>
<text x="695" y="595" font-size="14" text-anchor="middle" fill="#183044">-0.10</text>
<rect x="725" y="560" width="59" height="59" fill="#286ca5"/>
<text x="755" y="595" font-size="14" text-anchor="middle" fill="white">1.00</text>
<rect x="785" y="560" width="59" height="59" fill="#e9eef2"/>
<text x="815" y="595" font-size="14" text-anchor="middle" fill="#183044">0.07</text>
<text x="293" y="655" font-size="13" text-anchor="end" fill="#183044">9. Нет водопровода в доме</text>
<text x="815" y="125" font-size="15" text-anchor="middle" fill="#183044">9</text>
<rect x="305" y="620" width="59" height="59" fill="#f2f4f5"/>
<text x="335" y="655" font-size="14" text-anchor="middle" fill="#183044">0.03</text>
<rect x="365" y="620" width="59" height="59" fill="#dee6ed"/>
<text x="395" y="655" font-size="14" text-anchor="middle" fill="#183044">0.12</text>
<rect x="425" y="620" width="59" height="59" fill="#ecf0f3"/>
<text x="455" y="655" font-size="14" text-anchor="middle" fill="#183044">0.06</text>
<rect x="485" y="620" width="59" height="59" fill="#f3e6e6"/>
<text x="515" y="655" font-size="14" text-anchor="middle" fill="#183044">-0.09</text>
<rect x="545" y="620" width="59" height="59" fill="#f2f4f5"/>
<text x="575" y="655" font-size="14" text-anchor="middle" fill="#183044">0.03</text>
<rect x="605" y="620" width="59" height="59" fill="#f3f5f6"/>
<text x="635" y="655" font-size="14" text-anchor="middle" fill="#183044">0.02</text>
<rect x="665" y="620" width="59" height="59" fill="#f5f6f6"/>
<text x="695" y="655" font-size="14" text-anchor="middle" fill="#183044">0.01</text>
<rect x="725" y="620" width="59" height="59" fill="#e9eef2"/>
<text x="755" y="655" font-size="14" text-anchor="middle" fill="#183044">0.07</text>
<rect x="785" y="620" width="59" height="59" fill="#286ca5"/>
<text x="815" y="655" font-size="14" text-anchor="middle" fill="white">1.00</text>
<text x="25" y="718" font-size="14" text-anchor="start" fill="#183044">Синий: положительная связь. Красный: отрицательная. Число полных пар — в correlations.csv.</text>
<text x="25" y="746" font-size="14" text-anchor="start" fill="#183044">Связи показателей с общими компонентами частично обусловлены самой формулой.</text>
<text x="25" y="774" font-size="14" text-anchor="start" fill="#183044">Корреляции не доказывают причинность и не являются официальной статистикой.</text>
</g></svg>